<svg xmlns="http://www.w3.org/2000/svg" width="137" height="40" viewBox="0 0 137 40">
  <defs>
    <style>
      .cls-1 {
        fill: #506ee4;
        fill-rule: evenodd;
      }
    </style>
  </defs>
  <path id="soyuz" class="cls-1" d="M12.441,29.185c7.717,0,12.093-3.742,12.093-8.865C24.534,9.1,8.006,12.549,8.006,8.462c0-1.554,1.728-2.705,4.377-2.705A11.994,11.994,0,0,1,20.618,8.98L23.555,3.8A17.725,17.725,0,0,0,12.383,0C5.012,0,.981,4.088.981,8.75c0,10.937,16.47,7.2,16.47,11.743,0,1.727-1.5,2.936-4.665,2.936a15.767,15.767,0,0,1-9.617-3.857L0,24.868C2.939,27.573,7.6,29.185,12.441,29.185Zm27.461,0c9.214,0,14.742-6.735,14.742-14.621S49.116,0,39.9,0C30.746,0,25.217,6.678,25.217,14.564S30.746,29.185,39.9,29.185Zm0-6.5c-4.549,0-7.083-3.742-7.083-8.116,0-4.317,2.534-8.059,7.083-8.059,4.607,0,7.141,3.742,7.141,8.059C47.043,18.939,44.509,22.681,39.9,22.681ZM56.191,40c1.252-.012,3.142,0,3.949,0,4.78-.115,8.2-1.72,10.274-6.958L83.486,0.691H75.655L68.341,20.033,61.085,0.691H53.253L64.54,28.84,63.5,31.257a3.88,3.88,0,0,1-3.858,2.3c-0.691,0-2.068-.036-3.454-0.039V40ZM111.1,28.494V0.691h-7.314V19.515a8.187,8.187,0,0,1-6.334,3.166c-3.11,0-5.125-1.266-5.125-5.123V0.691H85.009V20.436c0,5.411,2.879,8.75,8.984,8.75a13.228,13.228,0,0,0,9.789-4.2v3.511H111.1Zm25.905,0V22.1H123.986L136.771,5.93V0.691H114.254v6.39h12.554L114.254,23.026v5.468H137Z"/>
</svg>
